<svg width="24" height="24" viewBox="0 0 24 24" fill="none" xmlns="http://www.w3.org/2000/svg">
<path d="M16.275 13.0502H12.8625V9.5627C12.8625 9.1127 12.4875 8.7002 12 8.7002C11.55 8.7002 11.1375 9.0752 11.1375 9.5627V13.0502H11.025C10.575 13.0502 10.1625 13.4252 10.1625 13.9127C10.1625 14.4002 10.5375 14.7752 11.025 14.7752H11.1375V14.8877C11.1375 15.3377 11.5125 15.7502 12 15.7502C12.45 15.7502 12.8625 15.3752 12.8625 14.8877V14.7752H16.275C16.725 14.7752 17.1375 14.4002 17.1375 13.9127C17.1375 13.4252 16.725 13.0502 16.275 13.0502Z" fill="#FBFBFB"/>
<path d="M22.3125 7.16269C22.3125 5.10019 20.6625 3.4502 18.6 3.4502C17.625 3.4502 16.725 3.8252 16.05 4.46269C15.0375 4.0127 13.9875 3.7127 12.825 3.6377V2.3627H13.875C14.325 2.3627 14.7375 1.9877 14.7375 1.5002C14.7375 1.0127 14.3625 0.637695 13.875 0.637695H10.0875C9.63752 0.637695 9.22502 1.0127 9.22502 1.5002C9.22502 1.9877 9.60002 2.3627 10.0875 2.3627H11.1375V3.6752C10.0125 3.7877 8.92502 4.05019 7.91252 4.5002C7.23752 3.8627 6.33752 3.4877 5.36252 3.4877C3.30002 3.4877 1.65002 5.13769 1.65002 7.20019C1.65002 8.21269 2.06252 9.18769 2.81252 9.86269C2.36252 10.9877 2.10002 12.2252 2.10002 13.5002C2.10002 18.9377 6.52502 23.3627 11.9625 23.3627C17.4 23.3627 21.825 18.9377 21.825 13.5002C21.825 12.2252 21.5625 10.9877 21.1125 9.86269C21.9 9.15019 22.3125 8.17519 22.3125 7.16269ZM18.6 5.13769C19.725 5.13769 20.625 6.03769 20.625 7.16269C20.625 7.53769 20.5125 7.91269 20.325 8.21269C19.6125 7.08769 18.7125 6.15019 17.625 5.40019C17.925 5.21269 18.2625 5.13769 18.6 5.13769ZM3.37502 7.16269C3.37502 6.03769 4.27502 5.13769 5.40002 5.13769C5.73752 5.13769 6.07502 5.21269 6.37502 5.40019C5.28752 6.15019 4.38752 7.12519 3.67502 8.21269C3.48752 7.87519 3.37502 7.53769 3.37502 7.16269ZM12 21.6752C7.50002 21.6752 3.82502 18.0002 3.82502 13.5002C3.82502 9.00019 7.50002 5.32519 12 5.32519C16.5 5.32519 20.175 9.00019 20.175 13.5002C20.175 18.0002 16.5 21.6752 12 21.6752Z" fill="#FBFBFB"/>
</svg>
