<svg width="24" height="24" viewBox="0 0 24 24" fill="none" xmlns="http://www.w3.org/2000/svg">
<path d="M20.175 7.0875C18.1125 4.9125 15.225 3.5625 12 3.5625C5.73755 3.5625 0.675049 8.6625 0.675049 14.925C0.675049 16.6875 1.08755 18.4125 1.83755 19.95C1.95005 20.175 2.13755 20.325 2.36255 20.4C2.43755 20.4 2.47505 20.4375 2.55005 20.4375C2.55005 20.4375 2.55005 20.4375 2.58755 20.4375C2.58755 20.4375 2.58755 20.4375 2.62505 20.4375C2.66255 20.4375 2.70005 20.4375 2.73755 20.4375C2.81255 20.4375 2.92505 20.4 3.00005 20.3625L4.53755 19.6125C4.95005 19.425 5.13755 18.9 4.91255 18.4875C4.68755 18.075 4.20005 17.8875 3.78755 18.1125L3.03755 18.4875C2.58755 17.4 2.40005 16.2375 2.36255 15.0375H3.93755C4.38755 15.0375 4.80005 14.6625 4.80005 14.175C4.80005 13.6875 4.42505 13.3125 3.93755 13.3125H2.47505C2.73755 11.6625 3.45005 10.1625 4.46255 8.925L5.81255 10.275C5.96255 10.425 6.18755 10.5375 6.41255 10.5375C6.63755 10.5375 6.86255 10.4625 7.01255 10.275C7.35005 9.9375 7.35005 9.4125 7.01255 9.075L5.62505 7.6875C7.12505 6.375 9.03755 5.475 11.175 5.325V7.6125C11.175 8.0625 11.55 8.475 12.0375 8.475C12.4875 8.475 12.9 8.1 12.9 7.6125V5.325C15 5.5125 16.9501 6.375 18.4501 7.6875L17.4 8.7375C17.0625 9.075 17.0625 9.6 17.4 9.9375C17.55 10.0875 17.775 10.2 18 10.2C18.225 10.2 18.45 10.125 18.6 9.9375L19.6125 8.925C20.625 10.1625 21.3 11.6625 21.6 13.3125H20.1376C19.6875 13.3125 19.275 13.6875 19.275 14.175C19.275 14.6625 19.65 15.0375 20.1376 15.0375H21.7125C21.7125 16.2375 21.4875 17.4 21.0375 18.525L20.2875 18.15C19.875 17.925 19.35 18.1125 19.1625 18.525C18.975 18.9375 19.125 19.4625 19.5375 19.65L21.0751 20.4C21.1875 20.475 21.3375 20.475 21.4501 20.475C21.4501 20.475 21.45 20.475 21.4875 20.475C21.4875 20.475 21.4875 20.475 21.525 20.475C21.8251 20.475 22.125 20.2875 22.275 20.025C23.0625 18.4875 23.4375 16.725 23.4375 15C23.3625 11.8875 22.125 9.1125 20.175 7.0875Z" fill="#FBFBFB"/>
<path d="M14.2876 12.8998L11.7751 14.7748C11.3251 14.8498 10.9126 15.1123 10.6501 15.4873C10.6126 15.5623 10.5751 15.5998 10.5376 15.6748L10.4626 15.7498H10.5001C10.0876 16.5373 10.3126 17.5123 11.0626 18.0748C11.8126 18.5998 12.8251 18.5248 13.4251 17.8873H13.4626L13.5001 17.8123C13.5376 17.7748 13.6126 17.6998 13.6501 17.6248C13.9501 17.2498 14.0251 16.7623 13.9876 16.3123L14.9626 13.3123C15.0751 12.9748 14.6251 12.6748 14.2876 12.8998Z" fill="#FBFBFB"/>
</svg>
