<svg width="32" height="24" viewBox="0 0 32 24" fill="none" xmlns="http://www.w3.org/2000/svg">
<rect width="32" height="24" rx="5" fill="#FFA906" fill-opacity="0.25"/>
<g clip-path="url(#clip0_825_2156)">
<path d="M23.3 7.2502C22.5 6.4002 21.65 5.5502 20.8 4.7252C20.625 4.5502 20.425 4.4502 20.2 4.4502C19.975 4.4502 19.75 4.5252 19.6 4.7002L10.175 14.0502C10.025 14.2002 9.925 14.3752 9.85 14.5502L8.475 18.7502C8.4 18.9502 8.45 19.1502 8.55 19.3002C8.675 19.4502 8.85 19.5502 9.075 19.5502H9.175L13.45 18.1252C13.65 18.0502 13.825 17.9502 13.95 17.8002L23.325 8.4502C23.475 8.3002 23.575 8.0752 23.575 7.8502C23.575 7.6252 23.475 7.4252 23.3 7.2502ZM13.15 17.0252C13.125 17.0502 13.1 17.0502 13.075 17.0752L9.85 18.1502L10.925 14.9252C10.925 14.9002 10.95 14.8752 10.975 14.8502L17.85 8.0002L20.025 10.1752L13.15 17.0252ZM20.8 9.3752L18.625 7.2002L20.15 5.6752C20.875 6.3752 21.6 7.1252 22.3 7.8502L20.8 9.3752Z" fill="#FFA31A"/>
</g>
<defs>
<clipPath id="clip0_825_2156">
<rect width="16" height="16" fill="white" transform="translate(8 4)"/>
</clipPath>
</defs>
</svg>
