<svg width="32" height="25" viewBox="0 0 32 25" fill="none" xmlns="http://www.w3.org/2000/svg">
<rect y="0.5" width="32" height="24" rx="5" fill="#3DAC21" fill-opacity="0.25"/>
<g clip-path="url(#clip0_671_2555)">
<path d="M23.3 7.74995C22.5 6.89995 21.65 6.04995 20.8 5.22495C20.625 5.04995 20.425 4.94995 20.2 4.94995C19.975 4.94995 19.75 5.02495 19.6 5.19995L10.175 14.55C10.025 14.7 9.92501 14.875 9.85001 15.05L8.47501 19.25C8.40001 19.45 8.45001 19.65 8.55001 19.8C8.67501 19.95 8.85001 20.05 9.07501 20.05H9.17501L13.45 18.625C13.65 18.55 13.825 18.45 13.95 18.3L23.325 8.94995C23.475 8.79995 23.575 8.57495 23.575 8.34995C23.575 8.12495 23.475 7.92495 23.3 7.74995ZM13.15 17.525C13.125 17.55 13.1 17.55 13.075 17.575L9.85001 18.65L10.925 15.425C10.925 15.4 10.95 15.375 10.975 15.35L17.85 8.49995L20.025 10.675L13.15 17.525ZM20.8 9.87495L18.625 7.69995L20.15 6.17495C20.875 6.87495 21.6 7.62495 22.3 8.34995L20.8 9.87495Z" fill="#266B15"/>
</g>
<defs>
<clipPath id="clip0_671_2555">
<rect width="16" height="16" fill="white" transform="translate(8 4.5)"/>
</clipPath>
</defs>
</svg>
