<svg width="32" height="25" viewBox="0 0 32 25" fill="none" xmlns="http://www.w3.org/2000/svg">
<rect y="0.5" width="32" height="24" rx="5" fill="#F10C0C" fill-opacity="0.3"/>
<g clip-path="url(#clip0_671_2553)">
<path d="M20.225 6.70005H18.3V6.27505C18.3 5.52505 17.7 4.92505 16.95 4.92505H15.025C14.275 4.92505 13.675 5.52505 13.675 6.27505V6.70005H11.75C11.025 6.70005 10.425 7.30005 10.425 8.02505V8.77505C10.425 9.32505 10.75 9.77505 11.225 9.97505L11.625 18.625C11.675 19.45 12.325 20.075 13.15 20.075H18.775C19.6 20.075 20.275 19.425 20.3 18.625L20.75 9.95005C21.225 9.75005 21.55 9.27505 21.55 8.75005V8.00005C21.55 7.30005 20.95 6.70005 20.225 6.70005ZM14.825 6.27505C14.825 6.15005 14.925 6.05005 15.05 6.05005H16.975C17.1 6.05005 17.2 6.15005 17.2 6.27505V6.70005H14.85V6.27505H14.825ZM11.575 8.02505C11.575 7.92505 11.65 7.82505 11.775 7.82505H20.225C20.325 7.82505 20.425 7.90005 20.425 8.02505V8.77505C20.425 8.87505 20.35 8.97505 20.225 8.97505H11.775C11.675 8.97505 11.575 8.90005 11.575 8.77505V8.02505ZM18.8 18.95H13.2C12.975 18.95 12.8 18.775 12.8 18.575L12.4 10.1H19.625L19.225 18.575C19.2 18.775 19.025 18.95 18.8 18.95Z" fill="#F10C0C"/>
<path d="M16 12.275C15.7 12.275 15.425 12.525 15.425 12.85V16.725C15.425 17.025 15.675 17.3 16 17.3C16.3 17.3 16.575 17.05 16.575 16.725V12.825C16.575 12.525 16.3 12.275 16 12.275Z" fill="#F10C0C"/>
<path d="M18.325 12.75C18.025 12.725 17.75 12.975 17.725 13.275L17.575 16.15C17.55 16.45 17.8 16.725 18.1 16.75H18.125C18.425 16.75 18.675 16.525 18.675 16.225L18.825 13.35C18.875 13.025 18.625 12.775 18.325 12.75Z" fill="#F10C0C"/>
<path d="M13.65 12.75C13.35 12.775 13.1 13.025 13.125 13.35L13.3 16.25C13.325 16.55 13.575 16.775 13.85 16.775H13.875C14.175 16.75 14.425 16.5 14.4 16.175L14.25 13.275C14.225 12.975 13.95 12.725 13.65 12.75Z" fill="#F10C0C"/>
</g>
<defs>
<clipPath id="clip0_671_2553">
<rect width="16" height="16" fill="white" transform="translate(8 4.5)"/>
</clipPath>
</defs>
</svg>
